<?xml version="1.0" encoding="utf-8"?>
<svg viewBox="-4 -4 40 40" xmlns="http://www.w3.org/2000/svg" xmlns:xlink="http://www.w3.org/1999/xlink">
  <defs>
    <linearGradient id="gradient-2-1" gradientUnits="userSpaceOnUse" x1="69.976" y1="0" x2="69.976" y2="32" gradientTransform="matrix(1, 0, 0, 1, -53.976, 0)" xlink:href="#gradient-2"/>
    <linearGradient id="gradient-2">
      <stop offset="0" style="stop-color: rgb(255, 148, 127);"/>
      <stop offset="1" style="stop-color: rgb(255, 161, 127);"/>
    </linearGradient>
  </defs>
  <path d="M 1.2 25.167 L 18.367 8 L 4.024 8 C 6.233 8 8.024 6.209 8.024 4 C 8.024 1.791 6.233 0 4.024 0 L 28.024 0 C 25.815 0 24.024 1.791 24.024 4 C 24.024 6.209 25.815 8 28.024 8 C 29.102 8 30.081 7.573 30.8 6.879 L 30.801 6.88 L 13.681 24 L 28.024 24 C 25.815 24 24.024 25.791 24.024 28 C 24.024 30.209 25.815 32 28.024 32 L 4.024 32 C 6.233 32 8.024 30.209 8.024 28 C 8.024 25.791 6.233 24 4.024 24 C 2.922 24 1.924 24.446 1.2 25.167 Z M 6.024 28 C 6.024 29.105 5.129 30 4.024 30 C 2.919 30 2.024 29.105 2.024 28 C 2.024 26.895 2.919 26 4.024 26 C 5.129 26 6.024 26.895 6.024 28 Z M 30.024 28 C 30.024 29.105 29.129 30 28.024 30 C 26.919 30 26.024 29.105 26.024 28 C 26.024 26.895 26.919 26 28.024 26 C 29.129 26 30.024 26.895 30.024 28 Z M 30.024 4 C 30.024 5.105 29.129 6 28.024 6 C 26.919 6 26.024 5.105 26.024 4 C 26.024 2.895 26.919 2 28.024 2 C 29.129 2 30.024 2.895 30.024 4 Z M 6.024 4 C 6.024 5.105 5.129 6 4.024 6 C 2.919 6 2.024 5.105 2.024 4 C 2.024 2.895 2.919 2 4.024 2 C 5.129 2 6.024 2.895 6.024 4 Z" style="fill: url('#gradient-2-1');"/>
</svg>