<?xml version="1.0" encoding="utf-8"?>
<svg viewBox="-4 -4 128 40" xmlns="http://www.w3.org/2000/svg" xmlns:xlink="http://www.w3.org/1999/xlink">
  <defs>
    <linearGradient id="gradient-2-3" gradientUnits="userSpaceOnUse" x1="10" y1="0" x2="10" y2="32" xlink:href="#gradient-2"/>
    <linearGradient id="gradient-2">
      <stop offset="0" style="stop-color: rgb(255, 148, 127);"/>
      <stop offset="1" style="stop-color: rgb(255, 161, 127);"/>
    </linearGradient>
    <linearGradient id="gradient-2-2" gradientUnits="userSpaceOnUse" x1="36" y1="0" x2="36" y2="32" xlink:href="#gradient-2"/>
    <linearGradient id="gradient-2-0" gradientUnits="userSpaceOnUse" x1="104" y1="0" x2="104" y2="32" xlink:href="#gradient-2"/>
    <linearGradient id="gradient-2-1" gradientUnits="userSpaceOnUse" x1="69.976" y1="0" x2="69.976" y2="32" xlink:href="#gradient-2"/>
  </defs>
  <path d="M 4 32 C 1.791 32 0 30.209 0 28 L 0 16 C 0 7.163 7.163 0 16 0 C 18.209 0 20 1.791 20 4 C 20 6.209 18.209 8 16 8 C 11.582 8 8 11.582 8 16 L 8 28 C 8 30.209 6.209 32 4 32 Z" style="fill: url('#gradient-2-3');"/>
  <path d="M 48 32 C 46.379 32 44.983 31.035 44.354 29.649 C 41.923 31.14 39.062 32 36 32 C 27.163 32 20 24.837 20 16 C 20 7.163 27.163 0 36 0 C 44.837 0 52 7.163 52 16 L 52 28 C 52 30.209 50.209 32 48 32 Z M 36 8 C 31.582 8 28 11.582 28 16 C 28 20.418 31.582 24 36 24 C 40.418 24 44 20.418 44 16 C 44 11.582 40.418 8 36 8 Z" style="fill: url('#gradient-2-2');"/>
  <path d="M 104 32 C 95.163 32 88 24.837 88 16 L 88 4 C 88 1.791 89.791 0 92 0 C 94.209 0 96 1.791 96 4 L 96 16 C 96 20.418 99.582 24 104 24 C 108.418 24 112 20.418 112 16 L 112 4 C 112 1.791 113.791 0 116 0 C 118.209 0 120 1.791 120 4 L 120 28 C 120 30.209 118.209 32 116 32 C 114.379 32 112.983 31.035 112.354 29.649 C 109.923 31.14 107.062 32 104 32 Z" style="fill: url('#gradient-2-0');"/>
  <path d="M 55.176 25.167 L 72.343 8 L 58 8 C 60.209 8 62 6.209 62 4 C 62 1.791 60.209 0 58 0 L 82 0 C 79.791 0 78 1.791 78 4 C 78 6.209 79.791 8 82 8 C 83.078 8 84.057 7.573 84.776 6.879 L 84.777 6.88 L 67.657 24 L 82 24 C 79.791 24 78 25.791 78 28 C 78 30.209 79.791 32 82 32 L 58 32 C 60.209 32 62 30.209 62 28 C 62 25.791 60.209 24 58 24 C 56.898 24 55.9 24.446 55.176 25.167 Z M 60 28 C 60 29.105 59.105 30 58 30 C 56.895 30 56 29.105 56 28 C 56 26.895 56.895 26 58 26 C 59.105 26 60 26.895 60 28 Z M 84 28 C 84 29.105 83.105 30 82 30 C 80.895 30 80 29.105 80 28 C 80 26.895 80.895 26 82 26 C 83.105 26 84 26.895 84 28 Z M 84 4 C 84 5.105 83.105 6 82 6 C 80.895 6 80 5.105 80 4 C 80 2.895 80.895 2 82 2 C 83.105 2 84 2.895 84 4 Z M 60 4 C 60 5.105 59.105 6 58 6 C 56.895 6 56 5.105 56 4 C 56 2.895 56.895 2 58 2 C 59.105 2 60 2.895 60 4 Z" style="fill: url('#gradient-2-1');"/>
</svg>