<?xml version="1.0" encoding="utf-8"?>
<svg viewBox="-4 -4 40 40" xmlns="http://www.w3.org/2000/svg" xmlns:xlink="http://www.w3.org/1999/xlink">
  <defs>
    <linearGradient id="gradient-2-1" gradientUnits="userSpaceOnUse" x1="69.976" y1="0" x2="69.976" y2="32" gradientTransform="matrix(1, 0, 0, 1, -53.976, 0)" xlink:href="#gradient-2"/>
    <linearGradient id="gradient-2">
      <stop offset="0" style="stop-color: rgb(255, 148, 127);"/>
      <stop offset="1" style="stop-color: rgb(255, 161, 127);"/>
    </linearGradient>
    <linearGradient id="gradient-2-0" gradientUnits="userSpaceOnUse" x1="17.5" y1="-1" x2="17.5" y2="32" xlink:href="#gradient-2"/>
  </defs>
  <path d="M 1.2 25.167 L 18.367 8 L 4.024 8 C 6.233 8 8.024 6.209 8.024 4 C 8.024 1.791 6.233 0 4.024 0 L 28.024 0 C 25.815 0 24.024 1.791 24.024 4 C 24.024 6.209 25.815 8 28.024 8 C 29.102 8 30.081 7.573 30.8 6.879 L 30.801 6.88 L 13.681 24 L 28.024 24 C 25.815 24 24.024 25.791 24.024 28 C 24.024 30.209 25.815 32 28.024 32 L 4.024 32 C 6.233 32 8.024 30.209 8.024 28 C 8.024 25.791 6.233 24 4.024 24 C 2.922 24 1.924 24.446 1.2 25.167 Z M 6.024 28 C 6.024 29.105 5.129 30 4.024 30 C 2.919 30 2.024 29.105 2.024 28 C 2.024 26.895 2.919 26 4.024 26 C 5.129 26 6.024 26.895 6.024 28 Z M 30.024 28 C 30.024 29.105 29.129 30 28.024 30 C 26.919 30 26.024 29.105 26.024 28 C 26.024 26.895 26.919 26 28.024 26 C 29.129 26 30.024 26.895 30.024 28 Z M 30.024 4 C 30.024 5.105 29.129 6 28.024 6 C 26.919 6 26.024 5.105 26.024 4 C 26.024 2.895 26.919 2 28.024 2 C 29.129 2 30.024 2.895 30.024 4 Z M 6.024 4 C 6.024 5.105 5.129 6 4.024 6 C 2.919 6 2.024 5.105 2.024 4 C 2.024 2.895 2.919 2 4.024 2 C 5.129 2 6.024 2.895 6.024 4 Z" style="fill: url('#gradient-2-1'); visibility: hidden;" transform="matrix(1, 0, 0, 1, 0, -3.552713678800501e-15)"/>
  <path d="M 12 14 L 12 23 L 0 11 L 12 -1 L 12 8 L 21 8 C 27.627 8 33 13.373 33 20 C 33 26.627 27.627 32 21 32 C 19.343 32 18 30.657 18 29 C 18 27.343 19.343 26 21 26 C 24.314 26 27 23.314 27 20 C 27 16.686 24.314 14 21 14 L 12 14 Z M 16 29 C 16 30.657 14.657 32 13 32 C 11.343 32 10 30.657 10 29 C 10 27.343 11.343 26 13 26 C 14.657 26 16 27.343 16 29 Z M 8 29 C 8 30.657 6.657 32 5 32 C 3.343 32 2 30.657 2 29 C 2 27.343 3.343 26 5 26 C 6.657 26 8 27.343 8 29 Z" style="fill: url('#gradient-2-0');" transform="matrix(1, 0, 0, 1, 0, -3.552713678800501e-15)"/>
</svg>